<svg width="140" height="32" viewBox="0 0 140 32" fill="none" xmlns="http://www.w3.org/2000/svg">
<g style="mix-blend-mode:overlay" clip-path="url(#clip0_1449_7972)">
<path d="M121.209 27.4848V23.1579C121.209 21.9617 121.689 20.8144 122.545 19.9686C123.401 19.1227 124.562 18.6475 125.772 18.6475H132.71C134.126 18.6475 135.485 18.0913 136.486 17.1012C137.488 16.1111 138.051 14.7683 138.051 13.3681V9.20627C138.047 7.80737 137.483 6.46694 136.482 5.47776C135.481 4.48859 134.125 3.93105 132.71 3.92692H128.497C127.082 3.93105 125.726 4.48859 124.725 5.47776C123.725 6.46694 123.161 7.80737 123.156 9.20627V10.5467C123.156 11.2272 123.427 11.8805 123.91 12.3646C124.394 12.8487 125.052 13.1244 125.74 13.1319L126.829 13.136L126.85 10.0296C126.855 9.36815 127.124 8.73536 127.599 8.26904C128.073 7.80272 128.715 7.54065 129.384 7.5399H131.829C132.501 7.5399 133.145 7.80379 133.621 8.27353C134.096 8.74326 134.363 9.38036 134.363 10.0447V12.5633C134.362 13.2273 134.095 13.8639 133.62 14.3334C133.145 14.8029 132.501 15.0669 131.829 15.0675L126.01 15.0461C124.735 15.0415 123.513 14.5374 122.613 13.6443C121.713 12.7511 121.207 11.5417 121.207 10.2809V9.208C121.222 7.30116 121.995 5.47656 123.359 4.12801C124.723 2.77947 126.568 2.01514 128.497 2H132.708C134.637 2.01514 136.482 2.77923 137.846 4.1274C139.21 5.47557 139.983 7.29973 139.999 9.20627V13.3681C139.998 15.2793 139.23 17.1121 137.863 18.4634C136.496 19.8147 134.641 20.5738 132.708 20.5738H128.77L128.774 27.4813C128.774 27.7818 128.715 28.0793 128.599 28.357C128.483 28.6347 128.313 28.887 128.098 29.0996C127.883 29.3122 127.628 29.4808 127.347 29.5959C127.066 29.7109 126.765 29.7701 126.461 29.7701H123.52C122.907 29.7697 122.319 29.5287 121.886 29.1002C121.452 28.6717 121.209 28.0907 121.209 27.4848ZM128.779 13.1354L131.835 13.1394C131.989 13.1379 132.136 13.0762 132.245 12.9678C132.354 12.8594 132.415 12.713 132.415 12.5604V10.0418C132.415 9.88821 132.353 9.74094 132.243 9.63235C132.133 9.52377 131.984 9.46277 131.829 9.46277H129.384C129.23 9.46276 129.081 9.52321 128.972 9.63092C128.862 9.73863 128.8 9.88486 128.799 10.0377L128.779 13.1354ZM123.155 23.1377V27.2052C123.155 27.3741 123.223 27.5361 123.344 27.6555C123.465 27.775 123.629 27.8421 123.8 27.8421H126.172C126.343 27.8421 126.507 27.775 126.628 27.6555C126.748 27.5361 126.816 27.3741 126.816 27.2052V20.5738H125.745C125.059 20.5754 124.4 20.8462 123.915 21.3268C123.43 21.8074 123.158 22.4587 123.158 23.1377H123.155Z" fill="white"/>
<path d="M6.55129 15.0711C8.43553 15.0572 9.82363 15.4901 10.7156 16.3698C11.1688 16.8351 11.5213 17.387 11.7513 17.9916C11.9814 18.5962 12.0842 19.2409 12.0535 19.8861C12.0807 20.5292 11.9709 21.1708 11.7311 21.7693C11.4913 22.3678 11.127 22.9098 10.6617 23.3601C9.7338 24.2402 8.3137 24.6802 6.40134 24.6802H2.95465V29.7691H0V15.092L6.55129 15.0711ZM6.25138 22.3984C6.97137 22.4265 7.68122 22.2234 8.27465 21.8194C8.55752 21.5863 8.7785 21.2884 8.91836 20.9517C9.05822 20.615 9.11274 20.2496 9.07716 19.8873C9.11629 19.521 9.06463 19.1507 8.92665 18.8086C8.78868 18.4664 8.56853 18.1626 8.2852 17.9233C7.68672 17.5224 6.97366 17.3225 6.25138 17.353H2.97572L2.95406 22.4001L6.25138 22.3984Z" fill="white"/>
<path d="M15.715 19.4203V21.3628C15.9474 20.729 16.3739 20.1826 16.9352 19.7995C17.4884 19.465 18.128 19.2962 18.7763 19.3137H19.6778V21.6575H18.7991C17.9884 21.6402 17.2035 21.94 16.6153 22.4919C16.0159 23.0481 15.7162 24.016 15.7162 25.3956V29.7665H12.8242V19.4203H15.715Z" fill="white"/>
<path d="M25.026 30C24.0502 30.0191 23.0854 29.794 22.2213 29.3457C21.416 28.9176 20.757 28.2637 20.3269 27.4662C19.8831 26.5724 19.6523 25.59 19.6523 24.5944C19.6523 23.5988 19.8831 22.6163 20.3269 21.7225C20.7572 20.9252 21.4162 20.2714 22.2213 19.8431C23.0958 19.4126 24.0595 19.1885 25.0365 19.1885C26.0135 19.1885 26.9772 19.4126 27.8517 19.8431C28.6584 20.273 29.3206 20.9261 29.7573 21.7225C30.2079 22.6143 30.4425 23.5975 30.4425 24.5944C30.4425 25.5913 30.2079 26.5744 29.7573 27.4662C29.3209 28.2628 28.6586 28.9161 27.8517 29.3457C26.9806 29.7956 26.0086 30.0206 25.026 30ZM25.026 27.783C25.3828 27.7975 25.7376 27.7228 26.0575 27.566C26.3774 27.4091 26.6522 27.1751 26.8565 26.8855C27.2834 26.1958 27.5093 25.403 27.5093 24.5944C27.5093 23.7858 27.2834 22.993 26.8565 22.3033C26.6522 22.0138 26.3773 21.7798 26.0574 21.623C25.7375 21.4661 25.3828 21.3914 25.026 21.4058C24.6705 21.3906 24.317 21.465 23.9986 21.622C23.6802 21.779 23.4075 22.0134 23.206 22.3033C22.7536 22.9814 22.5282 23.7828 22.5616 24.5944C22.5525 25.1488 22.6469 25.7002 22.8398 26.2208C23.0041 26.6709 23.2934 27.066 23.6746 27.3609C24.0638 27.6486 24.5402 27.7974 25.026 27.783Z" fill="white"/>
<path d="M41.6387 26.0305C41.5818 26.6086 41.4028 27.1686 41.1133 27.6741C40.8238 28.1797 40.4303 28.6196 39.9581 28.9654C38.9574 29.6713 37.7508 30.0346 36.522 30.0001C35.5462 30.0192 34.5815 29.7942 33.7173 29.3459C32.9121 28.9178 32.253 28.2639 31.8229 27.4664C31.3792 26.5726 31.1484 25.5902 31.1484 24.5946C31.1484 23.5989 31.3792 22.6165 31.8229 21.7227C32.2532 20.9254 32.9123 20.2716 33.7173 19.8433C34.5814 19.3947 35.5462 19.1695 36.522 19.1884C37.7477 19.1529 38.9513 19.5164 39.9476 20.2231C40.418 20.5716 40.8108 21.012 41.1017 21.5169C41.3927 22.0218 41.5754 22.5804 41.6387 23.158H38.6395C38.5311 22.6518 38.2564 22.1952 37.8581 21.8594C37.4802 21.5569 37.0064 21.3961 36.5202 21.4054C36.1648 21.3902 35.8112 21.4646 35.4929 21.6216C35.1745 21.7786 34.9017 22.013 34.7002 22.3029C34.2801 22.9949 34.0581 23.7869 34.0581 24.594C34.0581 25.4011 34.2801 26.193 34.7002 26.8851C34.9017 27.175 35.1744 27.4094 35.4928 27.5664C35.8112 27.7234 36.1648 27.7978 36.5202 27.7825C37.0064 27.7921 37.4804 27.6313 37.8581 27.3286C38.2565 26.9931 38.5313 26.5366 38.6395 26.0305H41.6387Z" fill="white"/>
<path d="M49.5832 29.7678L49.5404 28.4795C49.2009 28.9756 48.7366 29.3759 48.1931 29.641C47.6138 29.8935 46.9851 30.0161 46.3521 29.9999C45.7134 30.004 45.0826 29.8594 44.5109 29.5779C43.9077 29.2646 43.4178 28.774 43.1087 28.1738C42.7155 27.3912 42.5278 26.5235 42.5627 25.6505V19.4204H45.4529V25.2278C45.3826 25.9549 45.572 26.6833 45.9883 27.2867C46.157 27.4815 46.3674 27.6366 46.6045 27.7407C46.8415 27.8448 47.0992 27.8952 47.3584 27.8883C47.7743 27.8989 48.1851 27.7968 48.5464 27.593C48.8913 27.3851 49.1611 27.0749 49.3173 26.7066C49.51 26.2377 49.6012 25.7342 49.585 25.2284V19.421H52.4752V29.7683L49.5832 29.7678Z" fill="white"/>
<path d="M56.6883 19.4203V21.3628C56.9207 20.729 57.3472 20.1826 57.9084 19.7995C58.4617 19.4649 59.1012 19.2962 59.7495 19.3137H60.6487V21.6575H59.77C58.9593 21.6403 58.1744 21.9401 57.5862 22.4919C56.9872 23.0481 56.6875 24.016 56.6871 25.3956V29.7665H53.7969V19.4203H56.6883Z" fill="white"/>
<path d="M63.6262 25.4813C63.644 26.0975 63.8873 26.6865 64.311 27.139C64.5279 27.3563 64.7888 27.5259 65.0765 27.6369C65.3643 27.7478 65.6725 27.7976 65.981 27.7828C66.442 27.779 66.8973 27.682 67.319 27.4979C67.5552 27.3869 67.7622 27.2233 67.9237 27.02C68.0853 26.8167 68.1971 26.5792 68.2503 26.3261H71.1206C71.0076 27.0931 70.673 27.8117 70.157 28.3954C69.6665 28.9392 69.0493 29.3566 68.3587 29.6113C67.6538 29.8727 66.9067 30.0052 66.1538 30.0021C65.1668 30.0186 64.1913 29.7899 63.3169 29.3369C62.4929 28.9036 61.81 28.2484 61.3476 27.447C60.8556 26.5769 60.608 25.5925 60.6306 24.596C60.6065 23.5978 60.8385 22.6098 61.3048 21.7241C61.7351 20.9268 62.3942 20.273 63.1992 19.8447C64.0633 19.3961 65.0281 19.1709 66.0039 19.1898C66.958 19.1689 67.9016 19.3906 68.7441 19.8337C69.5364 20.2709 70.1777 20.9331 70.5852 21.7346C71.0501 22.6701 71.278 23.7034 71.2489 24.7454V25.4848L63.6262 25.4813ZM66.0027 21.4057C65.6868 21.3913 65.3714 21.442 65.0765 21.5548C64.7816 21.6675 64.5137 21.8398 64.2899 22.0605C63.8534 22.5147 63.5887 23.1039 63.5407 23.7286H68.3792C68.3415 23.0949 68.0623 22.4989 67.5978 22.0605C67.3887 21.8528 67.1402 21.6879 66.8665 21.5754C66.5927 21.4629 66.2991 21.405 66.0027 21.4051V21.4057Z" fill="white"/>
<path d="M68.6992 17.3725V15.0918H81.9084V17.3725H76.7917V29.7678H73.8159V17.3725H68.6992Z" fill="white"/>
<path d="M82.0599 25.4813C82.0778 26.0976 82.3214 26.6866 82.7452 27.139C82.9622 27.3563 83.223 27.526 83.5108 27.6369C83.7985 27.7479 84.1067 27.7976 84.4152 27.7828C84.8762 27.7789 85.3315 27.682 85.7532 27.4979C85.9894 27.3869 86.1964 27.2233 86.358 27.02C86.5196 26.8167 86.6313 26.5792 86.6845 26.3261H89.5549C89.4418 27.0931 89.1072 27.8116 88.5912 28.3954C88.1007 28.9392 87.4834 29.3565 86.7929 29.6113C86.088 29.8728 85.3409 30.0052 84.5881 30.0021C83.601 30.0186 82.6255 29.7899 81.7512 29.3369C80.9269 28.9038 80.2438 28.2485 79.7812 27.447C79.2892 26.5769 79.0416 25.5925 79.0642 24.596C79.0402 23.5978 79.2721 22.6098 79.7384 21.7241C80.1689 20.9268 80.8282 20.2729 81.6334 19.8447C82.4975 19.3961 83.4623 19.1709 84.4381 19.1898C85.3923 19.1689 86.3358 19.3906 87.1784 19.8337C87.9707 20.2709 88.612 20.9331 89.0194 21.7346C89.4844 22.6701 89.7122 23.7034 89.6831 24.7454V25.4848L82.0599 25.4813ZM84.4363 21.4057C84.1205 21.3913 83.805 21.442 83.5101 21.5548C83.2152 21.6675 82.9474 21.8398 82.7236 22.0605C82.287 22.5147 82.0224 23.1039 81.9743 23.7286H86.8128C86.7752 23.0949 86.496 22.4989 86.0314 22.0605C85.8221 21.8525 85.5731 21.6874 85.299 21.575C85.0248 21.4625 84.7308 21.4047 84.434 21.4051L84.4363 21.4057Z" fill="white"/>
<path d="M100.986 26.0305C100.93 26.6087 100.751 27.1687 100.461 27.6742C100.172 28.1798 99.7781 28.6197 99.3058 28.9655C98.3052 29.6714 97.0985 30.0347 95.8697 30.0001C94.8939 30.0193 93.9291 29.7942 93.065 29.3459C92.2598 28.9178 91.6007 28.2639 91.1706 27.4664C90.7269 26.5726 90.4961 25.5902 90.4961 24.5946C90.4961 23.5989 90.7269 22.6165 91.1706 21.7227C91.6009 20.9254 92.26 20.2716 93.065 19.8433C93.9291 19.3947 94.8939 19.1695 95.8697 19.1884C97.0954 19.1528 98.299 19.5164 99.2953 20.2231C99.7657 20.5716 100.158 21.012 100.449 21.5169C100.74 22.0218 100.923 22.5804 100.986 23.1581H97.989C97.8808 22.6517 97.606 22.1951 97.2076 21.8594C96.8295 21.5568 96.3555 21.396 95.8691 21.4054C95.5137 21.3903 95.1603 21.4648 94.8421 21.6217C94.5238 21.7787 94.2511 22.0131 94.0496 22.3029C93.6295 22.9949 93.4075 23.7869 93.4075 24.594C93.4075 25.4011 93.6295 26.193 94.0496 26.8851C94.251 27.1749 94.5237 27.4094 94.842 27.5664C95.1603 27.7234 95.5137 27.7978 95.8691 27.7826C96.3555 27.7922 96.8297 27.6314 97.2076 27.3286C97.6061 26.9932 97.8809 26.5367 97.989 26.0305H100.986Z" fill="white"/>
<path d="M104.922 15.0918L104.964 20.7081C105.304 20.2121 105.768 19.8119 106.312 19.5466C106.891 19.2941 107.52 19.1715 108.153 19.1877C108.784 19.1854 109.408 19.3302 109.972 19.6103C110.575 19.9237 111.065 20.4143 111.375 21.0144C111.768 21.797 111.955 22.6647 111.921 23.5377V29.7672H109.05V23.9598C109.12 23.2328 108.931 22.5044 108.515 21.9009C108.343 21.7046 108.128 21.5487 107.888 21.4446C107.647 21.3405 107.386 21.2909 107.123 21.2993C106.714 21.2907 106.31 21.393 105.956 21.5952C105.611 21.8031 105.341 22.1136 105.185 22.4822C104.993 22.951 104.901 23.4546 104.918 23.9604V29.7678H102.027V15.0918H104.922Z" fill="white"/>
</g>
<defs>
<clipPath id="clip0_1449_7972">
<rect width="140" height="28" fill="white" transform="translate(0 2)"/>
</clipPath>
</defs>
</svg>
