<svg width="106" height="32" viewBox="0 0 106 32" fill="none" xmlns="http://www.w3.org/2000/svg">
<g style="mix-blend-mode:overlay">
<path fill-rule="evenodd" clip-rule="evenodd" d="M15.1422 6.28473C14.0707 7.83309 13.5611 8.62089 13.5611 8.72896C13.5611 8.83995 14.8668 10.7697 17.8501 15.0681C20.2092 18.4668 22.3072 21.4848 22.5125 21.7746L22.8858 22.3016L23.4806 21.0895C24.2851 19.4498 24.4806 18.9695 24.6328 18.2594C24.9431 16.8106 24.6805 15.0678 23.9652 13.8303C23.764 13.4822 17.2024 4.35621 16.9721 4.10426C16.9197 4.04695 16.8423 4 16.8001 4C16.7578 4 16.0117 5.02813 15.1422 6.28473ZM12.2978 14.006C10.825 14.3002 9.39329 15.109 8.50109 16.1506C7.8068 16.9612 0.00830658 27.6814 0.00415329 27.831L0 27.9799L3.40884 27.9953C6.25932 28.0082 6.8321 27.9971 6.9056 27.9275C6.95399 27.8817 7.89779 26.6217 9.00301 25.1273C10.1082 23.6331 11.0309 22.4103 11.0534 22.41C11.0759 22.4097 11.4687 23.0059 11.9264 23.735C12.8522 25.2099 13.2728 25.7697 13.8053 26.2353C14.96 27.2451 16.3723 27.8273 17.9571 27.9469C18.3254 27.9747 22.0813 27.9801 26.3033 27.9589C33.3923 27.9233 33.9813 27.9128 33.9999 27.8213C34.0219 27.7132 30.5634 22.6242 30.3526 22.4541C30.2307 22.3558 29.6769 22.3498 20.6651 22.3498C15.4081 22.3498 11.1086 22.3298 11.1107 22.3052C11.1128 22.2806 12.4684 20.4374 14.1231 18.2092C15.7778 15.981 17.1245 14.15 17.1158 14.1401C17.0768 14.0962 14.031 13.8912 13.4667 13.8946C13.1161 13.8966 12.5985 13.946 12.2978 14.006Z" fill="white"/>
<path fill-rule="evenodd" clip-rule="evenodd" d="M97.1345 8C91.9238 8 88.2422 11.6627 88.2422 17C88.2422 22.3372 91.7686 26 97.1345 26C102.5 26 106.001 22.4678 106.001 17C106.001 11.5321 102.345 8 97.1345 8ZM97.1345 10.6952C100.686 10.6952 103.071 13.1804 103.071 17C103.071 20.8196 100.686 23.3047 97.1345 23.3047C93.5834 23.3047 91.1979 20.8196 91.1979 17C91.1979 13.1804 93.5834 10.6952 97.1345 10.6952ZM41.3198 11.1395H36.0723C36.0325 11.1395 36 11.1067 36 11.0666V8.46541C36 8.42528 36.0325 8.39245 36.0723 8.39245H49.6416C49.6813 8.39245 49.7138 8.42528 49.7138 8.46541V11.0666C49.7138 11.1067 49.6813 11.1395 49.6416 11.1395H44.368C44.3282 11.1395 44.2957 11.1723 44.2957 11.2125V25.5344C44.2957 25.5745 44.2631 25.6073 44.2234 25.6073H41.4644C41.4246 25.6073 41.3921 25.5745 41.3921 25.5344V11.2125C41.3921 11.1723 41.3596 11.1395 41.3198 11.1395ZM51.084 8.39258H60.8684C60.9081 8.39258 60.9404 8.42541 60.9404 8.46554V11.0666C60.9404 11.1068 60.9081 11.1396 60.8684 11.1396H53.9876C53.9478 11.1396 53.9153 11.1725 53.9153 11.2126V15.4357C53.9153 15.4758 53.9478 15.5086 53.9876 15.5086H60.6095C60.6493 15.5086 60.6819 15.5415 60.6819 15.5816V18.209C60.6819 18.2492 60.6493 18.282 60.6095 18.282H53.9876C53.9478 18.282 53.9153 18.3148 53.9153 18.3549V22.7874C53.9153 22.8276 53.9478 22.8604 53.9876 22.8604H61.1022C61.1416 22.8604 61.174 22.8933 61.174 22.9334V25.5345C61.174 25.5746 61.1416 25.6075 61.1022 25.6075H51.084C51.0443 25.6075 51.0117 25.5746 51.0117 25.5345V8.46554C51.0117 8.42541 51.0443 8.39258 51.084 8.39258ZM66.9897 18.5169C68.208 18.5169 69.0381 19.1706 69.5304 20.5314L71.2761 25.5586C71.286 25.5878 71.3134 25.6075 71.3441 25.6075H74.3513C74.4023 25.6075 74.4368 25.5564 74.4193 25.509L72.3562 19.9039C71.8934 18.6256 71.1094 17.8092 70.0271 17.4334C69.963 17.4108 69.9613 17.3189 70.0266 17.2962C71.9888 16.5994 73.0048 14.995 73.0048 13.0236C73.0048 10.2502 70.9564 8.39258 67.5342 8.39258H62.6036C62.5636 8.39258 62.5312 8.42541 62.5312 8.46554V25.5338C62.5312 25.5739 62.5636 25.6067 62.6036 25.6067H65.3625C65.4025 25.6067 65.4349 25.5739 65.4349 25.5338V18.5899C65.4349 18.5498 65.4672 18.5169 65.5072 18.5169H66.9897ZM70.0496 13.4942C70.0496 15.0118 69.0644 16.0318 67.4832 16.0318H65.5072C65.4672 16.0318 65.4349 15.999 65.4349 15.9588V11.1075C65.4349 11.0674 65.4672 11.0346 65.5072 11.0346H67.4569C69.0128 11.0346 70.0496 12.0028 70.0496 13.4942ZM75.3359 24.0074C75.3359 23.9928 75.3403 23.9782 75.348 23.9665L83.0352 12.5259L83.8916 11.2534C83.9245 11.2053 83.8905 11.1396 83.8319 11.1396H75.6419C75.6018 11.1396 75.5695 11.1068 75.5695 11.0666V8.46554C75.5695 8.42541 75.6018 8.39258 75.6419 8.39258H88.1478C88.1878 8.39258 88.2202 8.42541 88.2202 8.46554V9.99192C88.2202 10.0065 88.2158 10.0211 88.2081 10.0328L80.4951 21.4997L79.6639 22.7466C79.6311 22.7948 79.6656 22.8604 79.7237 22.8604H88.1478C88.1878 22.8604 88.2202 22.8933 88.2202 22.9334V25.5345C88.2202 25.5746 88.1878 25.6075 88.1478 25.6075H75.4083C75.3683 25.6075 75.3359 25.5746 75.3359 25.5345V24.0074Z" fill="white"/>
</g>
</svg>
