<svg width="137" height="32" viewBox="0 0 137 32" fill="none" xmlns="http://www.w3.org/2000/svg">
<g style="mix-blend-mode:overlay">
<path d="M79.921 7.40892C78.6425 7.47471 77.4974 7.53662 77.3778 7.54436L77.1562 7.55984V7.94296C77.1562 8.29705 77.1582 8.32801 77.1915 8.32801C77.2092 8.32801 77.3013 8.34155 77.3935 8.35896C77.5366 8.38412 77.5759 8.3996 77.6366 8.45571C77.6857 8.50021 77.7543 8.53504 77.8406 8.55826C77.9112 8.57955 78.068 8.62405 78.1857 8.65694C78.5523 8.75949 78.67 8.81754 78.7935 8.95105C78.9268 9.0981 79.0641 9.36512 79.117 9.5857C79.1562 9.74823 79.1562 9.79854 79.1562 15.8277C79.1562 21.7834 79.1562 21.9073 79.119 22.0524C79.0739 22.2246 79.0406 22.2904 78.9543 22.389C78.7896 22.5729 78.5053 22.6812 78.0229 22.7412C77.8464 22.7644 77.6778 22.7818 77.6484 22.7818C77.5955 22.7818 77.5915 22.7876 77.5798 22.8824C77.5739 22.9386 77.568 23.1127 77.568 23.2694V23.5558H77.7641H77.9621L78.0347 23.6313C78.0915 23.6893 78.1308 23.7106 78.2151 23.728C78.2935 23.7435 79.1288 23.7493 81.2641 23.7454C84.0837 23.7396 84.2092 23.7377 84.2778 23.7029C84.319 23.6835 84.37 23.639 84.3915 23.6042C84.468 23.4823 84.4288 23.2462 84.321 23.1746C84.2798 23.1495 84.2739 23.1301 84.27 22.9695L84.2641 22.7915L84.0582 22.7567C83.5876 22.6773 83.0229 22.4335 82.9621 22.2807C82.9504 22.2536 82.9268 22.1743 82.9072 22.1046C82.8759 21.9866 82.8719 21.5435 82.8621 14.9454C82.8523 8.08614 82.8523 7.91006 82.8151 7.83847C82.7955 7.79784 82.7563 7.7514 82.7327 7.73399C82.6915 7.7069 82.6857 7.68948 82.6857 7.57532C82.6857 7.44762 82.6837 7.44375 82.6013 7.36442C82.519 7.28315 82.517 7.28315 82.3817 7.28509C82.3053 7.28702 81.1994 7.34313 79.921 7.40892Z" fill="white"/>
<path d="M87.4327 7.40892C86.1542 7.47471 85.0091 7.53662 84.8895 7.54436L84.668 7.55984V7.94296C84.668 8.29705 84.6699 8.32801 84.7033 8.32801C84.7209 8.32801 84.8131 8.34155 84.9052 8.35896C85.0484 8.38412 85.0876 8.3996 85.1484 8.45571C85.1974 8.50021 85.266 8.53504 85.3523 8.55826C85.4229 8.57955 85.5797 8.62405 85.6974 8.65694C86.064 8.75949 86.1817 8.81754 86.3052 8.95105C86.4386 9.0981 86.5758 9.36512 86.6288 9.5857C86.668 9.74823 86.668 9.79854 86.668 15.8277C86.668 21.7834 86.668 21.9073 86.6307 22.0524C86.5856 22.2246 86.5523 22.2904 86.466 22.389C86.3013 22.5729 86.017 22.6812 85.5346 22.7412C85.3582 22.7644 85.1895 22.7818 85.1601 22.7818H85.1052L85.0935 22.9695C85.0856 23.074 85.0797 23.2481 85.0797 23.3565V23.5558H85.2758H85.4739L85.5464 23.6313C85.6033 23.6893 85.6425 23.7106 85.7268 23.728C85.8052 23.7435 86.6405 23.7493 88.7758 23.7454C91.5954 23.7396 91.7209 23.7377 91.7895 23.7029C91.8915 23.6545 91.9425 23.5655 91.9425 23.4416C91.9425 23.3197 91.9033 23.2211 91.8366 23.1785C91.7895 23.1475 91.7876 23.134 91.7817 22.9695L91.7758 22.7915L91.5699 22.7567C91.217 22.6986 90.7856 22.538 90.5739 22.389C90.5033 22.3387 90.4856 22.3097 90.4503 22.2033C90.4288 22.1336 90.4033 21.9885 90.3935 21.8821C90.3837 21.7699 90.3758 18.8036 90.3739 14.8429C90.3739 9.75791 90.368 7.97392 90.3523 7.90813C90.3386 7.85589 90.3033 7.7959 90.264 7.75527C90.2033 7.69529 90.1974 7.68174 90.1974 7.56758C90.1974 7.44955 90.1954 7.44375 90.1131 7.36442C90.0307 7.28315 90.0288 7.28315 89.8935 7.28509C89.817 7.28702 88.7111 7.34313 87.4327 7.40892Z" fill="white"/>
<path d="M116.602 7.31199C115.91 7.44163 115.291 7.91955 115.038 8.51938C114.936 8.76124 114.897 8.99149 114.908 9.2856C114.928 9.7674 115.079 10.1176 115.424 10.4756C115.604 10.6613 115.769 10.7852 116.02 10.9206C116.122 10.9767 116.251 11.0483 116.308 11.0793C116.453 11.1586 116.693 11.2418 116.883 11.2766C117.091 11.3153 117.497 11.3173 117.7 11.2786C118.481 11.1334 119.118 10.551 119.263 9.85253C119.326 9.54875 119.295 9.14242 119.187 8.85605C119.13 8.709 118.853 8.24655 118.722 8.08402C118.444 7.7338 118.022 7.46291 117.575 7.34682C117.33 7.2849 116.846 7.26748 116.602 7.31199Z" fill="white"/>
<path d="M8.67604 8.24283C7.41918 8.33764 6.3329 8.624 5.3133 9.13289C4.54663 9.51407 3.97212 9.9204 3.39173 10.4951C2.27604 11.596 1.51526 13.0511 1.22702 14.6358C0.985845 15.9612 1.05643 17.4279 1.41918 18.6604C1.56624 19.1616 1.72114 19.5466 1.97016 20.0342C2.57996 21.2242 3.43486 22.1317 4.61722 22.8437C5.73094 23.5132 6.73682 23.8789 7.94075 24.0472C8.4133 24.113 8.75839 24.1362 9.28584 24.1362C10.578 24.1362 11.5251 23.9427 12.5251 23.4764C13.6996 22.9288 14.5898 22.1336 15.3447 20.9591C15.7074 20.3941 15.7662 20.22 15.6466 20.0555L15.5878 19.9762L15.627 19.8988L15.6662 19.8233L15.2015 19.5485C14.9466 19.3976 14.7349 19.2815 14.7309 19.2931C14.7172 19.3318 14.3682 19.8601 14.2094 20.0826C13.6133 20.9088 12.8898 21.5763 12.176 21.9556C11.2525 22.447 10.08 22.6076 8.98192 22.3929C8.05055 22.2091 7.27016 21.7369 6.70153 21.0133C6.48192 20.7346 6.26231 20.2916 6.07016 19.744C5.68977 18.6662 5.54075 17.6485 5.54271 16.1257C5.54271 14.7732 5.66624 13.7399 5.94271 12.7725C6.56624 10.5957 7.86231 9.45021 9.70349 9.45021C10.4662 9.45021 11.2153 9.66305 11.6819 10.0094C12.5623 10.6673 13.3486 11.9559 13.9506 13.7264L14.0721 14.0843L14.2309 14.0901C14.3721 14.094 14.3976 14.1018 14.4407 14.1443C14.5211 14.2237 14.6211 14.2546 14.7956 14.2565C14.9819 14.2565 15.0858 14.214 15.1466 14.1114C15.18 14.0573 15.1878 14.0031 15.1917 13.8038C15.2035 13.3394 15.1192 9.30896 15.0956 9.2277C15.0839 9.18707 15.0427 9.12128 15.0055 9.08451C14.9388 9.01873 14.9368 9.01292 14.9251 8.82717L14.9153 8.63755H14.4525H13.9878L13.6682 8.91811C13.4917 9.0729 13.3388 9.19867 13.329 9.19867C13.3211 9.19867 13.2427 9.16385 13.1564 9.12128C12.6996 8.89489 11.9035 8.60852 11.3329 8.46534C11.0172 8.38601 10.5623 8.30474 10.2251 8.26798C10.0329 8.24863 8.87016 8.22928 8.67604 8.24283Z" fill="white"/>
<path d="M33.8815 8.25256C31.9168 8.40735 30.1208 9.15423 28.8423 10.3519C27.9659 11.1743 27.2737 12.2559 26.8639 13.4459C26.3482 14.9338 26.2757 16.7604 26.6678 18.3025C27.0031 19.6144 27.7717 20.903 28.7659 21.8183C29.2835 22.2943 29.6502 22.5593 30.3482 22.9637C31.2306 23.4765 32.0521 23.788 33.0286 23.9796C34.5423 24.2795 36.4149 24.1808 37.8051 23.73C39.3188 23.2385 40.6953 22.2401 41.5757 20.9959C42.7541 19.3261 43.2443 16.9771 42.8698 14.781C42.711 13.8406 42.409 13.0512 41.8698 12.1553C41.5619 11.6445 41.3031 11.2788 41.0306 10.9692C40.3188 10.1565 39.5757 9.59346 38.5874 9.11166C37.5717 8.62019 36.5031 8.33769 35.3129 8.25062C35.0051 8.2274 34.1815 8.22934 33.8815 8.25256ZM35.3855 9.4793C35.9796 9.55669 36.3541 9.71149 36.7109 10.023C37.2404 10.4855 37.6345 11.0911 37.9266 11.8902C38.2168 12.6758 38.3757 13.4865 38.4835 14.7132C38.5266 15.2086 38.5325 16.9055 38.4933 17.3834C38.4325 18.1129 38.3443 18.7514 38.2325 19.241C38.0227 20.1755 37.6482 21.0694 37.2404 21.6112C36.7031 22.3271 36.058 22.7354 35.2384 22.8825C34.9149 22.9405 34.3051 22.9405 33.9796 22.8825C33.3208 22.7644 32.807 22.4877 32.3325 21.9963C32.0815 21.7331 31.9345 21.5261 31.7737 21.2049C31.2639 20.1813 30.9894 18.9372 30.8992 17.2286C30.8737 16.7565 30.8855 15.584 30.9208 15.1486C31.0149 13.9373 31.1972 12.997 31.4992 12.1688C31.6247 11.8205 31.9247 11.2265 32.1129 10.9498C32.7051 10.0811 33.4992 9.58185 34.4698 9.47156C34.7129 9.44447 35.1384 9.44834 35.3855 9.4793Z" fill="white"/>
<path d="M16.6055 9.04793V9.46006L16.8153 9.49296C16.9898 9.52198 17.0329 9.53553 17.0663 9.57422C17.131 9.64968 17.2133 9.68064 17.5878 9.76191C17.9898 9.84705 18.227 9.9109 18.427 9.98443C18.6604 10.0696 18.7819 10.2244 18.8623 10.5301C18.8996 10.6713 18.8996 10.801 18.8996 16.1916C18.8996 22.2924 18.9094 21.8455 18.7702 22.1067C18.68 22.275 18.5525 22.3872 18.3408 22.4898C18.1172 22.5981 17.8976 22.6368 17.2329 22.6872C17.0761 22.6988 16.8741 22.7142 16.7819 22.72L16.6153 22.7336L16.6094 23.1438L16.6055 23.5559H16.8055C17.0055 23.5559 17.0074 23.5559 17.0388 23.6101C17.0564 23.6411 17.1035 23.6817 17.1466 23.703C17.2212 23.7397 17.3035 23.7397 21.0761 23.7397C24.8898 23.7397 24.929 23.7397 25.0055 23.701C25.1133 23.6469 25.1584 23.5772 25.1702 23.4534C25.1819 23.316 25.1486 23.2231 25.0643 23.1515L24.9976 23.0935V22.9116V22.7317L24.7584 22.7104C24.2408 22.6601 23.6015 22.5285 23.3604 22.424C23.2957 22.395 23.1898 22.335 23.1231 22.2886C23.0094 22.2073 23.0015 22.1976 22.9604 22.0602C22.9368 21.9809 22.9094 21.8164 22.8996 21.6965C22.8741 21.3966 22.8741 11.2944 22.8996 10.9983C22.9329 10.5959 23.0212 10.3714 23.2251 10.1702C23.4466 9.95153 23.8035 9.82576 24.4388 9.74256C24.9898 9.66903 25.0839 9.63614 25.1427 9.48909C25.2074 9.32849 25.1702 9.14274 25.0584 9.06147C24.9976 9.01697 24.9976 9.01697 24.9976 8.82735V8.63772H20.8015H16.6055V9.04793Z" fill="white"/>
<path d="M46.5899 9.04799L46.5957 9.45819L46.8055 9.49883C46.984 9.53559 47.0232 9.54913 47.0742 9.60138C47.1448 9.67103 47.2369 9.70199 47.5565 9.76971C48.1075 9.88581 48.4565 10.0058 48.5761 10.1238C48.6173 10.1625 48.6722 10.2399 48.6977 10.296C48.8075 10.5282 48.8016 10.1993 48.8016 16.1414C48.8016 22.1938 48.8095 21.7797 48.6801 22.0429C48.5663 22.2693 48.2801 22.4628 47.9291 22.5498C47.7761 22.5885 47.2899 22.6582 46.8506 22.7046C46.733 22.7182 46.6232 22.7317 46.6114 22.7356C46.5918 22.7414 46.5859 22.8401 46.5859 23.1497V23.556H46.782H46.9801L47.0526 23.6315C47.1075 23.6876 47.1506 23.7108 47.2291 23.7282C47.3624 23.7553 54.7154 23.7572 55.5271 23.7301C57.4663 23.6624 58.7389 23.4147 59.784 22.8981C60.6703 22.4589 61.231 21.8359 61.4957 21C61.6252 20.5936 61.6526 20.3789 61.6546 19.8313C61.6546 19.4037 61.6487 19.3224 61.6095 19.1308C61.5291 18.7342 61.4448 18.5233 61.2055 18.1092C61.0095 17.7667 60.8957 17.6023 60.7154 17.3894C60.2428 16.8302 59.5663 16.3949 58.6742 16.0775C58.3467 15.9614 57.7506 15.797 57.3938 15.7273C57.2369 15.6964 57.1173 15.6635 57.1212 15.6519C57.1369 15.6074 57.3055 15.5377 57.7428 15.3984C57.9957 15.3171 58.3134 15.2088 58.4448 15.1565C59.8683 14.5954 60.6467 13.7905 60.8114 12.7108C60.8546 12.4264 60.8506 11.9639 60.8016 11.6833C60.7193 11.2112 60.635 11.0139 60.2565 10.4005C59.7016 9.50463 58.5899 8.96672 56.831 8.74421C56.0683 8.64746 56.2271 8.65133 51.2467 8.64359L46.5859 8.63585L46.5899 9.04799ZM54.6252 9.82776C55.1742 9.91096 55.5428 10.0541 55.782 10.2767C56.2428 10.7043 56.4761 11.2886 56.5016 12.0742C56.535 13.0455 56.2801 13.7769 55.7134 14.3361C55.4232 14.6225 55.1075 14.8063 54.6546 14.9514C54.2487 15.0811 53.8722 15.1333 53.2291 15.1527L52.8055 15.1643L52.7918 15.0211C52.7859 14.9417 52.782 13.8195 52.7859 12.527C52.7918 10.5824 52.7977 10.1644 52.8193 10.1083C52.9036 9.89935 53.0408 9.82389 53.384 9.79874C53.7075 9.77552 54.3781 9.791 54.6252 9.82776ZM54.7879 16.4142C55.3742 16.5032 55.882 16.6774 56.1742 16.8863C56.3428 17.0082 56.6075 17.283 56.735 17.4726C57.0938 18.0028 57.2526 18.591 57.2526 19.394C57.2526 19.7616 57.2291 20.0209 57.1644 20.3363C56.9193 21.534 56.1016 22.3467 54.9389 22.544C54.6801 22.5885 54.1291 22.5866 53.8801 22.5421C53.5075 22.4763 53.1291 22.3138 52.933 22.1358C52.784 22.0003 52.7918 22.1512 52.7918 19.2992C52.7918 17.2907 52.7977 16.7567 52.8173 16.6909C52.8506 16.5845 52.9467 16.4761 53.0546 16.4297C53.1879 16.3716 53.3565 16.36 53.9585 16.3678C54.4055 16.3716 54.5722 16.3813 54.7879 16.4142Z" fill="white"/>
<path d="M106.609 11.5692V13.1655H105.629H104.648V13.7363V14.3071H104.846C105.043 14.3071 105.043 14.3071 105.094 14.3671C105.123 14.3999 105.168 14.4367 105.195 14.4483C105.229 14.4619 105.474 14.4735 105.888 14.4812C106.239 14.487 106.535 14.4986 106.545 14.5064C106.552 14.516 106.566 16.0562 106.572 17.9312C106.584 21.5688 106.578 21.3482 106.668 21.7488C106.815 22.3931 107.203 22.991 107.688 23.316C107.96 23.4979 108.437 23.7398 108.69 23.823C109.158 23.9759 109.643 24.03 110.372 24.0145C111.068 23.9991 111.492 23.9391 112.048 23.7746C112.394 23.674 112.948 23.4766 113.099 23.4012C113.301 23.2986 113.374 23.1806 113.374 22.9503C113.374 22.8342 113.366 22.7956 113.329 22.7414C113.305 22.7046 113.264 22.6678 113.241 22.6562C113.199 22.6388 113.197 22.6253 113.197 22.4182C113.197 22.1996 113.197 22.1977 113.152 22.2073C113.076 22.2267 112.648 22.277 112.394 22.2963C111.541 22.3641 111.211 22.335 110.868 22.1706C110.584 22.0332 110.484 21.8726 110.386 21.385C110.295 20.9477 110.294 20.789 110.299 17.7125L110.305 14.8198L110.346 14.7308C110.392 14.636 110.478 14.5605 110.59 14.518C110.643 14.4986 110.925 14.4909 111.845 14.4832C112.986 14.4715 113.033 14.4696 113.097 14.4328C113.215 14.3651 113.246 14.2742 113.246 14.0072C113.246 13.7459 113.215 13.6492 113.115 13.5931C113.06 13.5621 113.06 13.5602 113.06 13.3628V13.1655H111.68C110.439 13.1655 110.299 13.1616 110.288 13.1345C110.282 13.1171 110.276 12.5656 110.276 11.9078C110.276 11.0951 110.268 10.6772 110.254 10.6075C110.237 10.5301 110.213 10.4875 110.156 10.4334L110.08 10.3618V10.1664V9.97286H108.345H106.609V11.5692Z" fill="white"/>
<path d="M98.1185 12.8365C96.5165 12.9855 95.0812 13.7053 94.1773 14.814C93.289 15.9014 92.8557 17.2539 92.94 18.6703C93.0439 20.3885 93.6812 21.7275 94.8204 22.6233C95.0734 22.8226 95.2185 22.9194 95.6283 23.1593C96.1498 23.467 96.5851 23.6546 97.1224 23.8075C98.1694 24.1035 99.5988 24.1616 100.646 23.9507C101.462 23.7843 102.43 23.3315 103.118 22.7897C103.475 22.5092 104.087 21.8513 104.23 21.592C104.303 21.4605 104.303 21.3405 104.228 21.2457L104.173 21.1741L104.216 21.1044C104.238 21.0657 104.25 21.029 104.242 21.0212C104.207 20.9922 103.452 20.4601 103.444 20.4601C103.44 20.4601 103.393 20.5181 103.342 20.5897C102.795 21.3521 102.013 21.9771 101.309 22.2112C100.95 22.3292 100.495 22.3873 100.069 22.3679C99.2753 22.3292 98.6871 22.157 98.1969 21.8184C98.0302 21.7023 97.7675 21.4508 97.6479 21.2921C97.2832 20.8045 96.9812 19.659 96.9734 18.738C96.9714 18.5039 96.9753 18.4691 97.0145 18.3975C97.0675 18.3007 97.1537 18.2253 97.2518 18.1924C97.3086 18.173 98.0459 18.1653 100.628 18.1575C103.887 18.1479 103.932 18.1479 103.999 18.1092C104.146 18.024 104.179 17.8189 104.14 17.2481C104.103 16.7122 104.022 16.302 103.864 15.8473C103.769 15.5802 103.664 15.3655 103.44 14.992C103.222 14.6283 103.077 14.4406 102.795 14.16C102.444 13.8117 102.115 13.5815 101.628 13.3512C101.062 13.0823 100.571 12.9507 99.8243 12.8636C99.5145 12.8288 98.4067 12.8114 98.1185 12.8365ZM99.3185 13.9375C99.4302 13.9723 99.4636 13.9955 99.5577 14.0981C99.6655 14.2142 99.8028 14.4502 99.8812 14.6553C100.044 15.0714 100.136 15.7176 100.169 16.6715L100.183 17.0546L99.5675 17.0566C99.2283 17.0585 98.5322 17.0643 98.0204 17.0721C97.5086 17.0779 97.0655 17.0798 97.0361 17.0759L96.9812 17.0701V16.8921C96.9812 16.7044 97.0224 16.3039 97.0714 16.0195C97.2734 14.843 97.7734 14.1174 98.5165 13.9201C98.7126 13.8659 99.1263 13.8756 99.3185 13.9375Z" fill="white"/>
<path d="M130.09 12.8654C129.374 12.9505 128.69 13.1846 128.21 13.5058C127.971 13.6664 127.769 13.8251 127.335 14.1947L126.949 14.5236L126.939 14.0902C126.929 13.7051 126.923 13.649 126.886 13.5677C126.863 13.5194 126.825 13.4691 126.804 13.4575C126.769 13.4381 126.763 13.4168 126.763 13.2949V13.1537L126.676 13.0705L126.59 12.9873L124.2 13.115C122.886 13.1866 121.743 13.2504 121.661 13.2562L121.508 13.2678V13.6509C121.508 13.8638 121.516 14.036 121.523 14.036C121.533 14.036 121.623 14.0495 121.725 14.067C121.88 14.0921 121.918 14.1056 121.961 14.1521C122.031 14.2275 122.092 14.2546 122.341 14.3243C122.692 14.4249 122.778 14.4733 122.918 14.6436C123.047 14.8061 123.157 15.0151 123.21 15.2027C123.241 15.315 123.243 15.5607 123.243 18.6217C123.243 21.7563 123.241 21.9266 123.208 22.0446C123.155 22.2265 123.092 22.3348 122.984 22.4355C122.804 22.6019 122.571 22.6773 122.016 22.747L121.671 22.7896L121.657 22.9753C121.651 23.0759 121.645 23.2481 121.645 23.3565V23.5558H121.841H122.039L122.112 23.6312C122.169 23.6893 122.208 23.7106 122.292 23.728C122.371 23.7435 123.18 23.7493 125.233 23.7454C128.022 23.7396 128.069 23.7396 128.143 23.7009C128.247 23.6487 128.296 23.579 128.308 23.4629C128.318 23.3487 128.263 23.2075 128.186 23.1591C128.137 23.1282 128.135 23.1166 128.135 22.956V22.7857L127.994 22.7625C127.696 22.7122 127.339 22.5883 127.151 22.4684C127.067 22.4161 127.053 22.3968 127.018 22.2845C126.939 22.0369 126.937 21.9034 126.943 19.0281L126.949 16.2515L126.994 16.1431C127.167 15.7213 127.78 15.1931 128.376 14.9531C128.686 14.8293 128.892 14.7867 129.235 14.7771C129.747 14.7597 130.027 14.8409 130.2 15.0538C130.318 15.1969 130.473 15.5065 130.527 15.7097C130.635 16.1083 130.631 15.9903 130.639 19.0087C130.647 21.8356 130.643 21.9904 130.576 22.2149C130.512 22.4297 130.343 22.5961 130.12 22.6657C130.051 22.687 129.843 22.7218 129.659 22.7451C129.473 22.7683 129.32 22.7876 129.316 22.7915C129.314 22.7934 129.306 22.9676 129.298 23.1765L129.286 23.5558H129.486H129.686L129.759 23.6312C129.814 23.6874 129.857 23.7106 129.935 23.728C130.08 23.757 135.502 23.7589 135.645 23.728C135.831 23.6893 135.92 23.5597 135.89 23.37C135.88 23.2984 135.859 23.2597 135.8 23.2017L135.724 23.1262V22.956V22.7876L135.524 22.7567C135.171 22.7025 134.767 22.569 134.573 22.4432C134.484 22.3852 134.467 22.3619 134.439 22.2749C134.422 22.2188 134.4 22.1162 134.39 22.0465C134.378 21.9711 134.371 20.8334 134.371 19.2506C134.371 17.6485 134.363 16.4759 134.351 16.3192C134.312 15.8006 134.208 15.3517 134.039 14.9628C133.953 14.7674 133.665 14.2624 133.537 14.0844C133.024 13.3704 132.31 12.9815 131.296 12.8654C130.994 12.8305 130.384 12.8305 130.09 12.8654Z" fill="white"/>
<path d="M65.2135 13.117C63.9782 13.1828 62.8743 13.2447 62.7586 13.2524L62.5469 13.266V13.6491V14.0322L62.6508 14.0457C62.8979 14.0748 62.9586 14.0961 63.0253 14.1657C63.0822 14.2276 63.1155 14.2412 63.3802 14.3089C63.543 14.3515 63.7233 14.4076 63.7822 14.4385C63.9724 14.5333 64.1939 14.8371 64.2665 15.1022C64.2959 15.2164 64.2998 15.464 64.3116 18.0413C64.3253 21.1469 64.3175 20.9592 64.4508 21.5048C64.6116 22.1511 64.8704 22.6213 65.2998 23.0431C65.5292 23.2676 65.5743 23.3005 65.9979 23.5578C66.339 23.7648 66.7116 23.91 67.0841 23.9796C67.6449 24.088 68.5371 24.0783 69.1155 23.9603C69.739 23.8345 70.5743 23.4185 71.0881 22.9831C71.1861 22.898 71.3292 22.7761 71.4057 22.7103C71.4841 22.6445 71.5724 22.5768 71.6057 22.5594L71.6645 22.5284V23.0121V23.4939L71.7469 23.5636C71.8214 23.6275 71.839 23.6333 71.9547 23.6333C72.0665 23.6333 72.0841 23.6391 72.1194 23.6816C72.1704 23.7455 72.243 23.7822 72.3508 23.7977C72.4312 23.8074 76.5332 23.5733 76.743 23.5443C76.9684 23.5152 77.0763 23.4127 77.0763 23.2308C77.0763 23.1166 77.043 23.0354 76.9704 22.9793C76.9253 22.9444 76.9214 22.9289 76.9155 22.7509L76.9096 22.5594L76.7037 22.5458C76.1194 22.5052 75.8273 22.4162 75.5802 22.2014C75.4743 22.1085 75.4449 22.0582 75.3959 21.8976C75.3626 21.7932 75.3606 21.5107 75.3508 17.7221C75.341 13.9529 75.339 13.653 75.3077 13.5852C75.29 13.5465 75.2528 13.4924 75.2233 13.4672C75.1822 13.4285 75.1724 13.3995 75.1626 13.2756C75.1508 13.1383 75.1449 13.1247 75.0743 13.057L75.0018 12.9854L72.739 13.1054C71.4959 13.1712 70.3312 13.235 70.1508 13.2466L69.8214 13.2679V13.653C69.8214 14.0051 69.8233 14.0361 69.8567 14.0361C69.8743 14.0361 69.9645 14.0438 70.0547 14.0554C70.2037 14.0728 70.2233 14.0786 70.2841 14.1406C70.3645 14.2238 70.4135 14.2392 70.7449 14.2857C71.1175 14.3379 71.241 14.3824 71.3469 14.4966C71.441 14.5991 71.5488 14.8004 71.5998 14.9745C71.6332 15.0829 71.6351 15.2938 71.641 18.0665L71.6449 21.0424L71.5822 21.1333C71.492 21.2649 71.2273 21.5281 71.043 21.6713C70.5194 22.0776 70.0508 22.244 69.439 22.2479C69.192 22.2479 69.1214 22.2421 68.99 22.2053C68.7626 22.1414 68.5547 22.0273 68.4057 21.8841C68.2979 21.7796 68.2684 21.737 68.2175 21.6093C68.143 21.4158 68.1037 21.2688 68.0626 21.0173C68.0331 20.8373 68.0292 20.4523 68.0194 17.219C68.0077 13.7787 68.0057 13.6162 67.9724 13.5485C67.9528 13.5098 67.9135 13.4633 67.8881 13.4459C67.8469 13.4188 67.841 13.4014 67.841 13.2834C67.841 13.1673 67.8331 13.1421 67.7822 13.0725L67.7233 12.9912L67.59 12.9932C67.5175 12.9951 66.4488 13.0512 65.2135 13.117Z" fill="white"/>
<path d="M116.364 13.1171C115.125 13.1828 114.009 13.2448 113.89 13.2525L113.668 13.266V13.6472V14.0303L113.876 14.069C114.048 14.1039 114.095 14.1193 114.146 14.1677C114.231 14.247 114.291 14.2741 114.55 14.3457C114.96 14.4599 115.066 14.5102 115.203 14.6534C115.329 14.785 115.442 14.9746 115.505 15.1584C115.539 15.259 115.541 15.4138 115.546 18.5135C115.552 22.0525 115.554 21.9519 115.442 22.1996C115.346 22.4085 115.127 22.5711 114.815 22.6639C114.691 22.7007 114.127 22.782 113.999 22.782C113.95 22.782 113.948 22.7858 113.935 22.931C113.929 23.0122 113.923 23.1864 113.923 23.3179V23.5559H114.135H114.346L114.38 23.612C114.397 23.643 114.446 23.6836 114.486 23.703C114.558 23.7378 114.67 23.7397 117.59 23.7397C120.537 23.7397 120.621 23.7378 120.695 23.703C120.801 23.6507 120.844 23.5714 120.844 23.4302C120.844 23.3025 120.803 23.2134 120.717 23.1573C120.67 23.1283 120.668 23.1167 120.668 22.9561V22.7878L120.521 22.7645C120.042 22.6872 119.486 22.4646 119.382 22.306C119.362 22.2789 119.331 22.1996 119.307 22.128C119.266 21.9983 119.266 21.9906 119.256 17.8286L119.246 13.6588L119.201 13.5679C119.176 13.5195 119.135 13.4634 119.109 13.4479C119.064 13.4189 119.06 13.4034 119.06 13.2854C119.06 13.1558 119.058 13.1519 118.976 13.0726C118.893 12.9913 118.891 12.9913 118.756 12.9932C118.68 12.9952 117.605 13.0513 116.364 13.1171Z" fill="white"/>
</g>
</svg>
